<svg data-v-0dd9719b="" version="1.0" xmlns="http://www.w3.org/2000/svg" xmlns:xlink="http://www.w3.org/1999/xlink" width="100%" height="100%" viewBox="0 0 340.000000 250.000000" preserveAspectRatio="xMidYMid meet" color-interpolation-filters="sRGB" style="margin: auto;"> <rect data-v-0dd9719b="" x="0" y="0" width="100%" height="100%" fill="#fff" fill-opacity="1" class="background"></rect> <rect data-v-0dd9719b="" x="0" y="0" width="100%" height="100%" fill="url(#watermark)" fill-opacity="1" class="watermarklayer"></rect> <g data-v-0dd9719b="" fill="#e60012" class="icon-text-wrapper icon-svg-group iconsvg" transform="translate(48.24500274658203,90.0202865600586)"><g class="iconsvg-imagesvg" transform="translate(0,0)"><g><rect fill="#e60012" fill-opacity="0" stroke-width="2" x="0" y="0" width="59.99999999999999" height="69.95942353435007" class="image-rect"></rect> <svg x="0" y="0" width="59.99999999999999" height="69.95942353435007" filtersec="colorsb6299448167" class="image-svg-svg primary" style="overflow: visible;"><svg xmlns="http://www.w3.org/2000/svg" viewBox="0 0 66.56999969482422 77.62000274658203"><g><g><path fill="#FFE37B" d="M0 0h34.7v77.62H0z"></path><path fill="#af4284" fill-rule="evenodd" d="M45.77 44.41L35.29 21.3l-9.98 23.11h20.46z"></path><path d="M57.26 68.91a9.24 9.24 0 0 1-1 .06H14.65l6.06-14.08h30zM43.4 6.8h12.81a10.4 10.4 0 0 1 10.36 10.36v37.08z" fill="#e60012" fill-rule="evenodd"></path></g></g></svg></svg> <!----></g></g> <g transform="translate(67,19.83971405029297)"><g data-gra="path-name" fill-rule="" class="tp-name iconsvg-namesvg"><g transform="scale(1)"><g><path d="M21.74 1.67L18.25-7.88 5.95-7.88 2.45 1.67 0.78 1.67 11.45-27.01 12.86-27.01 23.56 1.67 21.74 1.67ZM6.54-9.51L17.65-9.51 12.11-24.71 6.54-9.51ZM27.46-28.24L29.1-28.24 29.1 1.67 27.46 1.67 27.46-28.24ZM36.16-26.27L36.16-26.27Q36.86-26.27 37.23-25.88 37.61-25.49 37.61-24.82L37.61-24.82Q37.61-24.12 37.23-23.74 36.86-23.37 36.16-23.37L36.16-23.37Q35.49-23.37 35.1-23.76 34.71-24.15 34.71-24.82L34.71-24.82Q34.71-25.49 35.12-25.88 35.52-26.27 36.16-26.27ZM35.34-19.1L36.97-19.1 36.97 1.67 35.34 1.67 35.34-19.1ZM50.5-19.47L50.5-19.47Q53.14-19.47 54.83-18.23 56.52-16.98 56.89-15.16L56.89-15.16 55.48-14.53Q55.22-16.13 53.97-17.06 52.73-17.99 50.57-17.99L50.57-17.99Q48.53-17.99 46.97-16.83 45.41-15.68 44.55-13.58 43.7-11.48 43.7-8.7L43.7-8.7Q43.7-5.95 44.57-3.83 45.45-1.71 47.01-0.56 48.57 0.59 50.57 0.59L50.57 0.59Q52.69 0.59 53.94-0.3 55.18-1.19 55.48-2.86L55.48-2.86 56.89-2.23Q56.52-0.45 54.81 0.8 53.1 2.04 50.5 2.04L50.5 2.04Q48.01 2.04 46.1 0.67 44.18-0.71 43.12-3.16 42.06-5.61 42.06-8.7L42.06-8.7Q42.06-11.82 43.12-14.27 44.18-16.72 46.1-18.1 48.01-19.47 50.5-19.47ZM76.99-8.96L76.99-8.7 61.94-8.7Q61.94-4.38 63.95-1.91 65.96 0.56 69.45 0.56L69.45 0.56Q71.75 0.56 73.07-0.37 74.39-1.3 75.28-3.53L75.28-3.53 76.62-2.9Q75.77-0.37 73.98 0.84 72.2 2.04 69.41 2.04L69.41 2.04Q66.7 2.04 64.64 0.74 62.58-0.56 61.44-2.99 60.31-5.43 60.31-8.7L60.31-8.7Q60.31-11.89 61.39-14.32 62.46-16.76 64.38-18.12 66.29-19.47 68.74-19.47L68.74-19.47Q72.61-19.47 74.8-16.65 76.99-13.82 76.99-8.96L76.99-8.96ZM62.02-10.18L62.02-10.18 75.4-10.18Q75.1-13.93 73.39-15.96 71.68-17.99 68.74-17.99L68.74-17.99Q66-17.99 64.17-15.87 62.35-13.75 62.02-10.18ZM108.95-18.47L108.95-18.47Q108.95-15.87 107.91-13.93 106.87-12 104.96-10.96 103.04-9.92 100.48-9.92L100.48-9.92 94.53-9.92 94.53 1.67 92.9 1.67 92.9-27.01 100.48-27.01Q103.04-27.01 104.96-25.97 106.87-24.93 107.91-23 108.95-21.07 108.95-18.47ZM107.28-18.47L107.28-18.47Q107.28-21.66 105.44-23.54 103.6-25.42 100.44-25.42L100.44-25.42 94.53-25.42 94.53-11.52 100.44-11.52Q103.6-11.52 105.44-13.38 107.28-15.24 107.28-18.47ZM114.56-26.27L114.56-26.27Q115.27-26.27 115.64-25.88 116.01-25.49 116.01-24.82L116.01-24.82Q116.01-24.12 115.64-23.74 115.27-23.37 114.56-23.37L114.56-23.37Q113.89-23.37 113.5-23.76 113.11-24.15 113.11-24.82L113.11-24.82Q113.11-25.49 113.52-25.88 113.93-26.27 114.56-26.27ZM113.74-19.1L115.38-19.1 115.38 1.67 113.74 1.67 113.74-19.1ZM122.92 0.15L136.34 0.15 136.34 1.67 120.58 1.67 120.58 0.59 133.85-17.61 120.92-17.61 120.92-19.1 136.11-19.1 136.11-18.06 122.92 0.15ZM142.84 0.15L156.26 0.15 156.26 1.67 140.5 1.67 140.5 0.59 153.77-17.61 140.83-17.61 140.83-19.1 156.03-19.1 156.03-18.06 142.84 0.15ZM177.18-14.12L177.18-3.31Q177.18-0.19 177.29 1.67L177.29 1.67 175.91 1.67Q175.76 0.37 175.69-3.27L175.69-3.27Q174.76-0.74 172.94 0.65 171.12 2.04 168.59 2.04L168.59 2.04Q166.14 2.04 164.26 0.69 162.39-0.67 161.35-3.1 160.31-5.54 160.31-8.7L160.31-8.7Q160.31-11.85 161.35-14.31 162.39-16.76 164.26-18.12 166.14-19.47 168.59-19.47L168.59-19.47Q171.12-19.47 172.94-18.06 174.76-16.65 175.69-14.16L175.69-14.16Q175.76-17.8 175.91-19.1L175.91-19.1 177.29-19.1Q177.18-17.28 177.18-14.12L177.18-14.12ZM175.65-8.7L175.65-8.7Q175.65-11.45 174.78-13.56 173.91-15.68 172.35-16.83 170.78-17.99 168.78-17.99L168.78-17.99Q166.77-17.99 165.23-16.81 163.69-15.64 162.81-13.54 161.94-11.45 161.94-8.7L161.94-8.7Q161.94-5.98 162.81-3.88 163.69-1.78 165.25-0.61 166.81 0.56 168.78 0.56L168.78 0.56Q170.78 0.56 172.35-0.61 173.91-1.78 174.78-3.88 175.65-5.98 175.65-8.7Z" transform="translate(-0.7799999713897705, 28.239999771118164)"></path></g> <!----> <!----> <!----> <!----> <!----> <!----> <!----></g></g> <!----></g></g><defs v-gra="od"></defs></svg>